<mxfile host="65bd71144e">
    <diagram id="WthTddk2DgIaLHmjtl6S" name="Page-1">
        <mxGraphModel dx="1983" dy="1325" grid="1" gridSize="10" guides="1" tooltips="1" connect="1" arrows="1" fold="1" page="1" pageScale="1" pageWidth="1600" pageHeight="1200" background="none" math="0" shadow="1">
            <root>
                <mxCell id="0"/>
                <mxCell id="1" parent="0"/>
                <mxCell id="67" value="Candidate Name" style="swimlane;fontStyle=0;childLayout=stackLayout;horizontal=1;startSize=26;horizontalStack=0;resizeParent=1;resizeParentMax=0;resizeLast=0;collapsible=1;marginBottom=0;rounded=0;sketch=0;strokeColor=#AF45ED;fillColor=#F694C1;fontColor=#0000FF;shadow=1;" vertex="1" parent="1">
                    <mxGeometry x="510" y="405" width="580" height="52" as="geometry"/>
                </mxCell>
                <mxCell id="68" value="- Event DataBase" style="text;strokeColor=none;fillColor=none;align=left;verticalAlign=top;spacingLeft=4;spacingRight=4;overflow=hidden;rotatable=0;points=[[0,0.5],[1,0.5]];portConstraint=eastwest;fontColor=#0000FF;shadow=1;" vertex="1" parent="67">
                    <mxGeometry y="26" width="580" height="26" as="geometry"/>
                </mxCell>
                <mxCell id="69" value="Purpose/Definition" style="swimlane;fontStyle=0;childLayout=stackLayout;horizontal=1;startSize=26;horizontalStack=0;resizeParent=1;resizeParentMax=0;resizeLast=0;collapsible=1;marginBottom=0;rounded=0;sketch=0;strokeColor=#AF45ED;fillColor=#F694C1;fontColor=#0000FF;shadow=1;" vertex="1" parent="1">
                    <mxGeometry x="510" y="457" width="580" height="52" as="geometry"/>
                </mxCell>
                <mxCell id="70" value="- Store all events in near future that Kiosk wishes to sell tickets for, as well as their coresponding venues." style="text;strokeColor=none;fillColor=none;align=left;verticalAlign=top;spacingLeft=4;spacingRight=4;overflow=hidden;rotatable=0;points=[[0,0.5],[1,0.5]];portConstraint=eastwest;fontColor=#0000FF;shadow=1;" vertex="1" parent="69">
                    <mxGeometry y="26" width="580" height="26" as="geometry"/>
                </mxCell>
                <mxCell id="71" value="Responsibilities" style="swimlane;fontStyle=0;childLayout=stackLayout;horizontal=1;startSize=26;horizontalStack=0;resizeParent=1;resizeParentMax=0;resizeLast=0;collapsible=1;marginBottom=0;rounded=0;sketch=0;strokeColor=#AF45ED;fillColor=#F694C1;fontColor=#0000FF;shadow=1;" vertex="1" parent="1">
                    <mxGeometry x="510" y="509" width="320" height="286" as="geometry"/>
                </mxCell>
                <mxCell id="72" value="- Event List (Name &amp; Price)" style="text;strokeColor=none;fillColor=none;align=left;verticalAlign=top;spacingLeft=4;spacingRight=4;overflow=hidden;rotatable=0;points=[[0,0.5],[1,0.5]];portConstraint=eastwest;fontColor=#0000FF;shadow=1;" vertex="1" parent="71">
                    <mxGeometry y="26" width="320" height="26" as="geometry"/>
                </mxCell>
                <mxCell id="74" value="- Event Artists / Performers" style="text;strokeColor=none;fillColor=none;align=left;verticalAlign=top;spacingLeft=4;spacingRight=4;overflow=hidden;rotatable=0;points=[[0,0.5],[1,0.5]];portConstraint=eastwest;fontColor=#0000FF;shadow=1;" vertex="1" parent="71">
                    <mxGeometry y="52" width="320" height="26" as="geometry"/>
                </mxCell>
                <mxCell id="73" value="- Venue Location / Capacity / Seating" style="text;strokeColor=none;fillColor=none;align=left;verticalAlign=top;spacingLeft=4;spacingRight=4;overflow=hidden;rotatable=0;points=[[0,0.5],[1,0.5]];portConstraint=eastwest;fontColor=#0000FF;shadow=1;" vertex="1" parent="71">
                    <mxGeometry y="78" width="320" height="26" as="geometry"/>
                </mxCell>
                <mxCell id="135" value=" " style="text;strokeColor=none;fillColor=none;align=left;verticalAlign=top;spacingLeft=4;spacingRight=4;overflow=hidden;rotatable=0;points=[[0,0.5],[1,0.5]];portConstraint=eastwest;fontColor=#0000FF;shadow=1;" vertex="1" parent="71">
                    <mxGeometry y="104" width="320" height="26" as="geometry"/>
                </mxCell>
                <mxCell id="134" value="- Display Event Time / Artists / Location / Pricing" style="text;strokeColor=none;fillColor=none;align=left;verticalAlign=top;spacingLeft=4;spacingRight=4;overflow=hidden;rotatable=0;points=[[0,0.5],[1,0.5]];portConstraint=eastwest;fontColor=#0000FF;shadow=1;" vertex="1" parent="71">
                    <mxGeometry y="130" width="320" height="26" as="geometry"/>
                </mxCell>
                <mxCell id="75" value="- Display Venue Seating / Layout" style="text;strokeColor=none;fillColor=none;align=left;verticalAlign=top;spacingLeft=4;spacingRight=4;overflow=hidden;rotatable=0;points=[[0,0.5],[1,0.5]];portConstraint=eastwest;fontColor=#0000FF;shadow=1;" vertex="1" parent="71">
                    <mxGeometry y="156" width="320" height="26" as="geometry"/>
                </mxCell>
                <mxCell id="76" value="- Update Event List" style="text;strokeColor=none;fillColor=none;align=left;verticalAlign=top;spacingLeft=4;spacingRight=4;overflow=hidden;rotatable=0;points=[[0,0.5],[1,0.5]];portConstraint=eastwest;fontColor=#0000FF;shadow=1;" vertex="1" parent="71">
                    <mxGeometry y="182" width="320" height="26" as="geometry"/>
                </mxCell>
                <mxCell id="77" value="- Update Event Artists / Performers" style="text;strokeColor=none;fillColor=none;align=left;verticalAlign=top;spacingLeft=4;spacingRight=4;overflow=hidden;rotatable=0;points=[[0,0.5],[1,0.5]];portConstraint=eastwest;fontColor=#0000FF;shadow=1;" vertex="1" parent="71">
                    <mxGeometry y="208" width="320" height="26" as="geometry"/>
                </mxCell>
                <mxCell id="78" value="- Update Venue Capacity / Seating" style="text;strokeColor=none;fillColor=none;align=left;verticalAlign=top;spacingLeft=4;spacingRight=4;overflow=hidden;rotatable=0;points=[[0,0.5],[1,0.5]];portConstraint=eastwest;fontColor=#0000FF;shadow=1;" vertex="1" parent="71">
                    <mxGeometry y="234" width="320" height="26" as="geometry"/>
                </mxCell>
                <mxCell id="129" value="- Acquire Event Ticket / Reciept (Physical / Digital)" style="text;strokeColor=none;fillColor=none;align=left;verticalAlign=top;spacingLeft=4;spacingRight=4;overflow=hidden;rotatable=0;points=[[0,0.5],[1,0.5]];portConstraint=eastwest;fontColor=#0000FF;shadow=1;" vertex="1" parent="71">
                    <mxGeometry y="260" width="320" height="26" as="geometry"/>
                </mxCell>
                <mxCell id="81" value="Collaborators" style="swimlane;fontStyle=0;childLayout=stackLayout;horizontal=1;startSize=26;horizontalStack=0;resizeParent=1;resizeParentMax=0;resizeLast=0;collapsible=1;marginBottom=0;rounded=0;sketch=0;strokeColor=#AF45ED;fillColor=#F694C1;fontColor=#0000FF;shadow=1;" vertex="1" parent="1">
                    <mxGeometry x="830" y="509" width="260" height="286" as="geometry"/>
                </mxCell>
                <mxCell id="89" value="- Admin" style="text;strokeColor=none;fillColor=none;align=left;verticalAlign=top;spacingLeft=4;spacingRight=4;overflow=hidden;rotatable=0;points=[[0,0.5],[1,0.5]];portConstraint=eastwest;fontColor=#0000FF;shadow=1;" vertex="1" parent="81">
                    <mxGeometry y="26" width="260" height="26" as="geometry"/>
                </mxCell>
                <mxCell id="90" value="- Internet Connection" style="text;strokeColor=none;fillColor=none;align=left;verticalAlign=top;spacingLeft=4;spacingRight=4;overflow=hidden;rotatable=0;points=[[0,0.5],[1,0.5]];portConstraint=eastwest;fontColor=#0000FF;shadow=1;" vertex="1" parent="81">
                    <mxGeometry y="52" width="260" height="26" as="geometry"/>
                </mxCell>
                <mxCell id="82" value="- LCD Screen " style="text;strokeColor=none;fillColor=none;align=left;verticalAlign=top;spacingLeft=4;spacingRight=4;overflow=hidden;rotatable=0;points=[[0,0.5],[1,0.5]];portConstraint=eastwest;fontColor=#0000FF;shadow=1;" vertex="1" parent="81">
                    <mxGeometry y="78" width="260" height="26" as="geometry"/>
                </mxCell>
                <mxCell id="92" value=" " style="text;strokeColor=none;fillColor=none;align=left;verticalAlign=top;spacingLeft=4;spacingRight=4;overflow=hidden;rotatable=0;points=[[0,0.5],[1,0.5]];portConstraint=eastwest;fontColor=#0000FF;shadow=1;" vertex="1" parent="81">
                    <mxGeometry y="104" width="260" height="26" as="geometry"/>
                </mxCell>
                <mxCell id="93" value=" " style="text;strokeColor=none;fillColor=none;align=left;verticalAlign=top;spacingLeft=4;spacingRight=4;overflow=hidden;rotatable=0;points=[[0,0.5],[1,0.5]];portConstraint=eastwest;fontColor=#0000FF;shadow=1;" vertex="1" parent="81">
                    <mxGeometry y="130" width="260" height="26" as="geometry"/>
                </mxCell>
                <mxCell id="94" value=" " style="text;strokeColor=none;fillColor=none;align=left;verticalAlign=top;spacingLeft=4;spacingRight=4;overflow=hidden;rotatable=0;points=[[0,0.5],[1,0.5]];portConstraint=eastwest;fontColor=#0000FF;shadow=1;" vertex="1" parent="81">
                    <mxGeometry y="156" width="260" height="26" as="geometry"/>
                </mxCell>
                <mxCell id="95" value=" " style="text;strokeColor=none;fillColor=none;align=left;verticalAlign=top;spacingLeft=4;spacingRight=4;overflow=hidden;rotatable=0;points=[[0,0.5],[1,0.5]];portConstraint=eastwest;fontColor=#0000FF;shadow=1;" vertex="1" parent="81">
                    <mxGeometry y="182" width="260" height="26" as="geometry"/>
                </mxCell>
                <mxCell id="96" value=" " style="text;strokeColor=none;fillColor=none;align=left;verticalAlign=top;spacingLeft=4;spacingRight=4;overflow=hidden;rotatable=0;points=[[0,0.5],[1,0.5]];portConstraint=eastwest;fontColor=#0000FF;shadow=1;" vertex="1" parent="81">
                    <mxGeometry y="208" width="260" height="26" as="geometry"/>
                </mxCell>
                <mxCell id="128" value=" " style="text;strokeColor=none;fillColor=none;align=left;verticalAlign=top;spacingLeft=4;spacingRight=4;overflow=hidden;rotatable=0;points=[[0,0.5],[1,0.5]];portConstraint=eastwest;fontColor=#0000FF;shadow=1;" vertex="1" parent="81">
                    <mxGeometry y="234" width="260" height="26" as="geometry"/>
                </mxCell>
                <mxCell id="136" value=" " style="text;strokeColor=none;fillColor=none;align=left;verticalAlign=top;spacingLeft=4;spacingRight=4;overflow=hidden;rotatable=0;points=[[0,0.5],[1,0.5]];portConstraint=eastwest;fontColor=#0000FF;shadow=1;" vertex="1" parent="81">
                    <mxGeometry y="260" width="260" height="26" as="geometry"/>
                </mxCell>
                <mxCell id="91" style="edgeStyle=orthogonalEdgeStyle;curved=0;rounded=1;sketch=0;orthogonalLoop=1;jettySize=auto;html=1;exitX=1;exitY=0.5;exitDx=0;exitDy=0;fontColor=#0000FF;strokeColor=#60E696;fillColor=#F694C1;shadow=1;" edge="1" parent="81">
                    <mxGeometry relative="1" as="geometry">
                        <mxPoint x="260" y="65" as="sourcePoint"/>
                        <mxPoint x="260" y="65" as="targetPoint"/>
                    </mxGeometry>
                </mxCell>
            </root>
        </mxGraphModel>
    </diagram>
</mxfile>